<svg width="7" height="12" viewBox="0 0 7 12" fill="none" xmlns="http://www.w3.org/2000/svg">
<path d="M6.27994 1.26136C6.41242 1.11919 6.48454 0.931143 6.48111 0.736842C6.47769 0.542541 6.39897 0.357156 6.26156 0.219743C6.12415 0.0823298 5.93876 0.00361704 5.74446 0.000188828C5.55016 -0.00323939 5.36211 0.0688845 5.21994 0.201365L0.21994 5.20136C0.150245 5.27101 0.0949573 5.35372 0.0572362 5.44474C0.0195151 5.53577 0.000100136 5.63333 0.000100136 5.73186C0.000100136 5.8304 0.0195151 5.92796 0.0572362 6.01899C0.0949573 6.11001 0.150245 6.19271 0.21994 6.26236L5.21994 11.2624C5.36146 11.3989 5.55094 11.4744 5.74759 11.4726C5.94424 11.4708 6.13231 11.3919 6.2713 11.2527C6.41029 11.1136 6.48908 10.9255 6.4907 10.7288C6.49231 10.5322 6.41663 10.3428 6.27994 10.2014L1.80994 5.73136L6.27994 1.26136Z" fill="#141124"/>
</svg>
