<svg width="71" height="67" viewBox="0 0 71 67" fill="none" xmlns="http://www.w3.org/2000/svg">
<path fill-rule="evenodd" clip-rule="evenodd" d="M0 8C0 3.58154 3.58173 0 8 0H63C67.4183 0 71 3.58154 71 8V59C71 63.4185 67.4183 67 63 67H8C3.58173 67 0 63.4185 0 59V8ZM48.7305 20.2695C45.7045 17.2437 40.7471 17.2437 37.7211 20.2695L31.7764 26.2139C33.8152 25.6348 36.0257 25.7847 37.9572 26.686L41.0474 23.5957C42.2493 22.394 44.2021 22.394 45.404 23.5957C46.6058 24.7979 46.6058 26.7505 45.404 27.9526L41.5196 31.8369L38.9658 34.3906C37.764 35.5923 35.811 35.5923 34.6092 34.3906L31.2828 37.7168C32.0554 38.4897 32.9567 39.0688 33.9009 39.4341C36.4548 40.4424 39.4164 40.0562 41.6484 38.2964C41.7745 38.1958 41.9081 38.0874 42.0361 37.9712C42.1257 37.8901 42.2126 37.8052 42.2922 37.7168L46.3053 33.7036L48.7304 31.2788C51.7779 28.2529 51.7779 23.3169 48.7305 20.2695ZM29.9523 43.4038L32.9139 40.4424C35.4463 41.4512 36.133 41.5371 39.0947 40.8501L33.2788 46.7305C30.2529 49.7563 25.2954 49.7563 22.2695 46.7305C19.2435 43.7046 19.2435 38.7471 22.2695 35.7212L28.7077 29.2832C28.7935 29.1973 28.9008 29.0898 29.0081 29.0039C31.2615 26.9868 34.4162 26.4932 37.0988 27.5659C38.0431 27.9312 38.9445 28.5103 39.717 29.2832L36.3906 32.6094C35.1887 31.4077 33.2358 31.4077 32.034 32.6094L25.5958 39.0474C24.394 40.2495 24.394 42.2021 25.5958 43.4038C26.7976 44.606 28.7505 44.606 29.9523 43.4038Z" fill="#E97777"/>
</svg>
