<svg width="20" height="20" viewBox="0 0 55 58" fill="none" xmlns="http://www.w3.org/2000/svg">
<path d="M44.494 37.031C41.445 37.031 38.711 38.345 36.804 40.431L20.238 32.463C20.634 31.36 20.86 30.181 20.86 28.942C20.86 27.705 20.633 26.524 20.238 25.421L36.804 17.455C38.711 19.54 41.448 20.857 44.494 20.857C50.253 20.857 54.923 16.188 54.923 10.429C54.923 4.669 50.253 0 44.494 0C38.734 0 34.065 4.669 34.065 10.429C34.065 10.981 34.121 11.519 34.204 12.048L16.569 20.527C14.845 19.267 12.727 18.515 10.428 18.515C4.669 18.515 0 23.183 0 28.94C0 34.702 4.669 39.37 10.428 39.37C12.727 39.37 14.845 38.618 16.568 37.356L34.202 45.837C34.12 46.366 34.063 46.904 34.063 47.456C34.063 53.216 38.733 57.884 44.493 57.884C50.252 57.884 54.921 53.216 54.921 47.456C54.921 41.697 50.253 37.031 44.494 37.031Z" fill="black"/>
</svg>
