<svg width="252" height="252" viewBox="0 0 252 252" fill="none" xmlns="http://www.w3.org/2000/svg">
<path fill-rule="evenodd" clip-rule="evenodd" d="M0 126C0 56.523 56.523 0 126 0C195.477 0 252 56.523 252 126C252 195.477 195.477 252 126 252C56.523 252 0 195.477 0 126ZM18 126C18 185.551 66.449 234 126 234C185.551 234 234 185.551 234 126C234 66.449 185.551 18 126 18C66.449 18 18 66.449 18 126ZM151.884 87.3882C155.399 83.8732 161.097 83.8732 164.612 87.3882C168.127 90.9022 168.127 96.6012 164.613 100.115L138.728 126L164.613 151.885C168.128 155.4 168.128 161.098 164.613 164.613C162.855 166.37 160.552 167.249 158.249 167.249C155.946 167.249 153.642 166.37 151.885 164.613L126 138.728L100.115 164.613C98.3572 166.37 96.0542 167.249 93.7512 167.249C91.4482 167.249 89.1442 166.37 87.3872 164.613C83.8722 161.098 83.8722 155.4 87.3872 151.885L113.272 126L87.3872 100.115C83.8722 96.6002 83.8722 90.9022 87.3872 87.3872C90.9022 83.8722 96.6002 83.8722 100.115 87.3872L126 113.272L151.884 87.3882Z" fill="black"/>
</svg>
